<?xml version="1.0" encoding="UTF-8" standalone="no"?><svg xmlns="http://www.w3.org/2000/svg" xmlns:xlink="http://www.w3.org/1999/xlink" contentScriptType="application/ecmascript" contentStyleType="text/css" height="179px" preserveAspectRatio="none" style="width:228px;height:179px;" version="1.1" viewBox="0 0 228 179" width="228px" zoomAndPan="magnify"><defs><filter height="300%" id="f1dzp9gz51ysdu" width="300%" x="-1" y="-1"><feGaussianBlur result="blurOut" stdDeviation="2.0"/><feColorMatrix in="blurOut" result="blurOut2" type="matrix" values="0 0 0 0 0 0 0 0 0 0 0 0 0 0 0 0 0 0 .4 0"/><feOffset dx="4.0" dy="4.0" in="blurOut2" result="blurOut3"/><feBlend in="SourceGraphic" in2="blurOut3" mode="normal"/></filter></defs><g><rect fill="#FEFECE" filter="url(#f1dzp9gz51ysdu)" height="50" rx="12.5" ry="12.5" style="stroke: #A80036; stroke-width: 1.5;" width="76" x="6" y="8"/><line style="stroke: #A80036; stroke-width: 1.5;" x1="6" x2="82" y1="34.0986" y2="34.0986"/><text fill="#000000" font-family="sans-serif" font-size="14" lengthAdjust="spacingAndGlyphs" textLength="56" x="16" y="26.1318">write test</text><rect fill="#FEFECE" filter="url(#f1dzp9gz51ysdu)" height="50" rx="12.5" ry="12.5" style="stroke: #A80036; stroke-width: 1.5;" width="99" x="117.5" y="8"/><line style="stroke: #A80036; stroke-width: 1.5;" x1="117.5" x2="216.5" y1="34.0986" y2="34.0986"/><text fill="#000000" font-family="sans-serif" font-size="14" lengthAdjust="spacingAndGlyphs" textLength="79" x="127.5" y="26.1318">make it pass</text><rect fill="#FEFECE" filter="url(#f1dzp9gz51ysdu)" height="50" rx="12.5" ry="12.5" style="stroke: #A80036; stroke-width: 1.5;" width="69" x="70.5" y="118"/><line style="stroke: #A80036; stroke-width: 1.5;" x1="70.5" x2="139.5" y1="144.0986" y2="144.0986"/><text fill="#000000" font-family="sans-serif" font-size="14" lengthAdjust="spacingAndGlyphs" textLength="49" x="80.5" y="136.1318">refactor</text><!--MD5=[3c7ee62456258e33a4b0cf49abe3f071]
link write_test to make_it_pass--><path d="M82.4375,33 C92.3764,33 102.3153,33 112.2542,33 " fill="none" id="write_test-&gt;make_it_pass" style="stroke: #A80036; stroke-width: 1.0;"/><polygon fill="#A80036" points="117.4517,33,108.4517,29,112.4517,33,108.4517,37,117.4517,33" style="stroke: #A80036; stroke-width: 1.0;"/><!--MD5=[79085f4c2218e416454c3ab608173af1]
link make_it_pass to refactor--><path d="M152.7759,58.2362 C143.5606,74.5861 131.5148,95.9576 121.8243,113.1504 " fill="none" id="make_it_pass-&gt;refactor" style="stroke: #A80036; stroke-width: 1.0;"/><polygon fill="#A80036" points="119.1579,117.8812,127.0617,112.005,121.613,113.5255,120.0926,108.0768,119.1579,117.8812" style="stroke: #A80036; stroke-width: 1.0;"/><!--MD5=[d199e126f7e28e38953a078b7d91a592]
link refactor to write_test--><path d="M91.0705,117.8812 C82.0171,101.5554 70.1668,80.186 60.6215,62.9732 " fill="none" id="refactor-&gt;write_test" style="stroke: #A80036; stroke-width: 1.0;"/><polygon fill="#A80036" points="57.9946,58.2362,58.8612,68.0469,60.4194,62.6089,65.8574,64.1671,57.9946,58.2362" style="stroke: #A80036; stroke-width: 1.0;"/><!--MD5=[3529073158654f9eddda2cc9aaadc861]
@startuml
state "write test" as write_test
state "make it pass" as make_it_pass
state "refactor" as refactor

write_test -> make_it_pass
make_it_pass - -> refactor
refactor - -> write_test
@enduml

PlantUML version 1.2019.12(Sun Nov 03 11:24:54 CET 2019)
(APACHE source distribution)
Java Runtime: OpenJDK Runtime Environment
JVM: OpenJDK 64-Bit Server VM
Java Version: 11.0.6+10
Operating System: Linux
Default Encoding: UTF-8
Language: de
Country: DE
--></g></svg>